<mxfile host="app.diagrams.net" modified="2024-05-21T14:40:04.780Z" agent="Mozilla/5.0 (Windows NT 10.0; Win64; x64) AppleWebKit/537.36 (KHTML, like Gecko) Chrome/125.0.0.0 Safari/537.36 Edg/125.0.0.0" etag="H8nIP_rU_DFenrBuIr0r" version="24.4.4" type="device">
  <diagram name="Page-1" id="O4E-j94OID2pAprdPfzH">
    <mxGraphModel dx="1065" dy="1080" grid="1" gridSize="10" guides="1" tooltips="1" connect="1" arrows="0" fold="1" page="1" pageScale="1" pageWidth="850" pageHeight="1100" math="0" shadow="0">
      <root>
        <mxCell id="0" />
        <mxCell id="1" parent="0" />
        <mxCell id="_7HrErII7w1wzGjDSFvH-63" value="AWS Cloud" style="points=[[0,0],[0.25,0],[0.5,0],[0.75,0],[1,0],[1,0.25],[1,0.5],[1,0.75],[1,1],[0.75,1],[0.5,1],[0.25,1],[0,1],[0,0.75],[0,0.5],[0,0.25]];outlineConnect=0;gradientColor=none;html=1;whiteSpace=wrap;fontSize=12;fontStyle=0;container=1;pointerEvents=0;collapsible=0;recursiveResize=0;shape=mxgraph.aws4.group;grIcon=mxgraph.aws4.group_aws_cloud_alt;strokeColor=#232F3E;fillColor=none;verticalAlign=top;align=left;spacingLeft=30;fontColor=#232F3E;dashed=0;" vertex="1" parent="1">
          <mxGeometry x="30" y="80" width="790" height="710" as="geometry" />
        </mxCell>
        <mxCell id="_7HrErII7w1wzGjDSFvH-64" value="VPC" style="sketch=0;outlineConnect=0;gradientColor=none;html=1;whiteSpace=wrap;fontSize=12;fontStyle=0;shape=mxgraph.aws4.group;grIcon=mxgraph.aws4.group_vpc;strokeColor=#879196;fillColor=none;verticalAlign=top;align=left;spacingLeft=30;fontColor=#879196;dashed=0;" vertex="1" parent="_7HrErII7w1wzGjDSFvH-63">
          <mxGeometry x="75" y="90" width="640" height="530" as="geometry" />
        </mxCell>
        <mxCell id="_7HrErII7w1wzGjDSFvH-76" style="rounded=0;orthogonalLoop=1;jettySize=auto;html=1;exitX=1;exitY=0.5;exitDx=0;exitDy=0;exitPerimeter=0;edgeStyle=orthogonalEdgeStyle;strokeColor=default;endArrow=none;endFill=0;" edge="1" parent="_7HrErII7w1wzGjDSFvH-63" source="_7HrErII7w1wzGjDSFvH-70" target="_7HrErII7w1wzGjDSFvH-66">
          <mxGeometry relative="1" as="geometry" />
        </mxCell>
        <mxCell id="_7HrErII7w1wzGjDSFvH-73" style="edgeStyle=orthogonalEdgeStyle;rounded=0;orthogonalLoop=1;jettySize=auto;html=1;exitX=0.5;exitY=1;exitDx=0;exitDy=0;exitPerimeter=0;strokeColor=none;endArrow=none;endFill=0;" edge="1" parent="_7HrErII7w1wzGjDSFvH-63" source="_7HrErII7w1wzGjDSFvH-65" target="_7HrErII7w1wzGjDSFvH-70">
          <mxGeometry relative="1" as="geometry" />
        </mxCell>
        <mxCell id="_7HrErII7w1wzGjDSFvH-65" value="" style="outlineConnect=0;dashed=0;verticalLabelPosition=bottom;verticalAlign=top;align=center;html=1;shape=mxgraph.aws3.internet_gateway;fillColor=#F58534;gradientColor=none;" vertex="1" parent="_7HrErII7w1wzGjDSFvH-63">
          <mxGeometry x="361" y="60" width="69" height="72" as="geometry" />
        </mxCell>
        <mxCell id="_7HrErII7w1wzGjDSFvH-66" value="Public subnet" style="points=[[0,0],[0.25,0],[0.5,0],[0.75,0],[1,0],[1,0.25],[1,0.5],[1,0.75],[1,1],[0.75,1],[0.5,1],[0.25,1],[0,1],[0,0.75],[0,0.5],[0,0.25]];outlineConnect=0;gradientColor=none;html=1;whiteSpace=wrap;fontSize=12;fontStyle=0;container=1;pointerEvents=0;collapsible=0;recursiveResize=0;shape=mxgraph.aws4.group;grIcon=mxgraph.aws4.group_security_group;grStroke=0;strokeColor=#7AA116;fillColor=#F2F6E8;verticalAlign=top;align=left;spacingLeft=30;fontColor=#248814;dashed=0;" vertex="1" parent="_7HrErII7w1wzGjDSFvH-63">
          <mxGeometry x="430" y="240" width="250" height="315" as="geometry" />
        </mxCell>
        <mxCell id="_7HrErII7w1wzGjDSFvH-67" value="" style="sketch=0;points=[[0,0,0],[0.25,0,0],[0.5,0,0],[0.75,0,0],[1,0,0],[0,1,0],[0.25,1,0],[0.5,1,0],[0.75,1,0],[1,1,0],[0,0.25,0],[0,0.5,0],[0,0.75,0],[1,0.25,0],[1,0.5,0],[1,0.75,0]];outlineConnect=0;fontColor=#232F3E;fillColor=#ED7100;strokeColor=#ffffff;dashed=0;verticalLabelPosition=bottom;verticalAlign=top;align=center;html=1;fontSize=12;fontStyle=0;aspect=fixed;shape=mxgraph.aws4.resourceIcon;resIcon=mxgraph.aws4.ec2;" vertex="1" parent="_7HrErII7w1wzGjDSFvH-66">
          <mxGeometry x="86" y="119" width="78" height="78" as="geometry" />
        </mxCell>
        <mxCell id="_7HrErII7w1wzGjDSFvH-69" value="" style="outlineConnect=0;dashed=0;verticalLabelPosition=bottom;verticalAlign=top;align=center;html=1;shape=mxgraph.aws3.route_table;fillColor=#F58536;gradientColor=none;" vertex="1" parent="_7HrErII7w1wzGjDSFvH-63">
          <mxGeometry x="528.37" y="190" width="53.26" height="50" as="geometry" />
        </mxCell>
        <mxCell id="_7HrErII7w1wzGjDSFvH-70" value="" style="outlineConnect=0;dashed=0;verticalLabelPosition=bottom;verticalAlign=top;align=center;html=1;shape=mxgraph.aws3.router;fillColor=#F58534;gradientColor=none;" vertex="1" parent="_7HrErII7w1wzGjDSFvH-63">
          <mxGeometry x="361" y="148" width="69" height="72" as="geometry" />
        </mxCell>
        <mxCell id="_7HrErII7w1wzGjDSFvH-72" value="" style="endArrow=none;html=1;rounded=0;" edge="1" parent="_7HrErII7w1wzGjDSFvH-63" source="_7HrErII7w1wzGjDSFvH-70">
          <mxGeometry width="50" height="50" relative="1" as="geometry">
            <mxPoint x="345" y="182" as="sourcePoint" />
            <mxPoint x="395" y="132" as="targetPoint" />
          </mxGeometry>
        </mxCell>
        <mxCell id="_7HrErII7w1wzGjDSFvH-68" value="Security Group" style="rounded=1;arcSize=10;dashed=1;strokeColor=#ff0000;fillColor=none;gradientColor=none;dashPattern=8 4;strokeWidth=2;" vertex="1" parent="_7HrErII7w1wzGjDSFvH-63">
          <mxGeometry x="510" y="300" width="90" height="40" as="geometry" />
        </mxCell>
        <mxCell id="_7HrErII7w1wzGjDSFvH-79" value="" style="endArrow=none;html=1;rounded=0;entryX=0.5;entryY=1;entryDx=0;entryDy=0;" edge="1" parent="_7HrErII7w1wzGjDSFvH-63" source="_7HrErII7w1wzGjDSFvH-67" target="_7HrErII7w1wzGjDSFvH-68">
          <mxGeometry width="50" height="50" relative="1" as="geometry">
            <mxPoint x="510" y="390" as="sourcePoint" />
            <mxPoint x="560" y="340" as="targetPoint" />
          </mxGeometry>
        </mxCell>
        <mxCell id="_7HrErII7w1wzGjDSFvH-78" value="" style="endArrow=none;html=1;rounded=0;" edge="1" parent="_7HrErII7w1wzGjDSFvH-63" source="_7HrErII7w1wzGjDSFvH-69" target="_7HrErII7w1wzGjDSFvH-68">
          <mxGeometry width="50" height="50" relative="1" as="geometry">
            <mxPoint x="570" y="269" as="sourcePoint" />
            <mxPoint x="577.7142857142858" y="359" as="targetPoint" />
          </mxGeometry>
        </mxCell>
      </root>
    </mxGraphModel>
  </diagram>
</mxfile>